<svg width="596.34248046875px" height="184.43251953125px" xmlns="http://www.w3.org/2000/svg" viewBox="-48.17124023437498 -17.216259765624997 596.34248046875 184.43251953125" style="background: rgb(253, 253, 253);" preserveAspectRatio="xMidYMid"><defs><filter id="editing-extrude-glow"><feFlood flood-color="#4b5156" result="flood-1"></feFlood><feMorphology operator="erode" radius="1" in="SourceAlpha" result="erode"></feMorphology><feComposite operator="in" in="flood-1" in2="erode" result="comp1"></feComposite><feConvolveMatrix order="3,3" divisor="1" in="comp1" result="convolve" kernelMatrix="0 0 0 1 1 1 0 0 0"></feConvolveMatrix><feOffset dx="-3" dy="0" in="convolve" result="extrude"></feOffset><feComposite operator="in" in="flood-1" in2="extrude" result="comp-extrude"></feComposite><feFlood flood-color="#dce4eb" result="flood-2"></feFlood><feComposite operator="in" in="flood-2" in2="SourceAlpha" result="comp2"></feComposite><feMorphology operator="dilate" radius="1" in="comp2" result="dilate"></feMorphology><feOffset dx="-4.5" dy="0" in="dilate" result="offset"></feOffset><feGaussianBlur in="offset" stdDeviation="5.8" result="blur"></feGaussianBlur><feComponentTransfer in="blur" result="shadow"><feFuncA type="linear" slope="0.8" intercept="-0.2"></feFuncA></feComponentTransfer><feMerge><feMergeNode in="shadow"></feMergeNode><feMergeNode in="comp-extrude"></feMergeNode><feMergeNode in="SourceGraphic"></feMergeNode></feMerge></filter></defs><g filter="url(#editing-extrude-glow)"><g transform="translate(39.34436705708504, 111.45000076293945)"><path d="M42.33-48.05L42.33-48.05L42.33-48.05Q43.89-51.17 43.89-54.08L43.89-54.08L43.89-54.08Q43.89-56.99 43.58-58.60L43.58-58.60L43.58-58.60Q43.26-60.22 42.54-61.46L42.54-61.46L42.54-61.46Q40.98-64.17 37.86-64.17L37.86-64.17L37.86-64.17Q34.01-64.17 30.89-61.36L30.89-61.36L30.89-61.36Q27.56-58.45 27.56-53.87L27.56-53.87L27.56-53.87Q27.56-50.96 29.59-48.72L29.59-48.72L29.59-48.72Q31.62-46.49 34.74-44.41L34.74-44.41L34.74-44.41Q37.86-42.33 41.39-40.25L41.39-40.25L41.39-40.25Q44.93-38.17 48.05-35.67L48.05-35.67L48.05-35.67Q55.22-29.95 55.22-22.26L55.22-22.26L55.22-22.26Q55.22-17.06 52.47-12.64L52.47-12.64L52.47-12.64Q49.71-8.22 45.14-4.99L45.14-4.99L45.14-4.99Q35.15 2.08 21.94 2.08L21.94 2.08L21.94 2.08Q11.23 2.08 5.72-1.40L5.72-1.40L5.72-1.40Q0.21-4.89 0.21-10.19L0.21-10.19L0.21-10.19Q0.21-19.66 7.59-22.05L7.59-22.05L7.59-22.05Q9.67-22.78 12.84-22.78L12.84-22.78L12.84-22.78Q16.02-22.78 19.66-21.42L19.66-21.42L19.66-21.42Q17.99-17.16 17.99-13.31L17.99-13.31L17.99-13.31Q17.99-4.99 23.92-4.99L23.92-4.99L23.92-4.99Q27.77-4.99 30.94-7.80L30.94-7.80L30.94-7.80Q34.11-10.61 34.11-13.78L34.11-13.78L34.11-13.78Q34.11-16.95 32.08-19.24L32.08-19.24L32.08-19.24Q30.06-21.53 27.04-23.35L27.04-23.35L27.04-23.35Q24.02-25.17 20.54-26.94L20.54-26.94L20.54-26.94Q17.06-28.70 14.04-31.20L14.04-31.20L14.04-31.20Q6.97-36.92 6.97-46.07L6.97-46.07L6.97-46.07Q6.97-52.00 9.88-56.63L9.88-56.63L9.88-56.63Q12.79-61.26 17.47-64.38L17.47-64.38L17.47-64.38Q26.83-70.72 38.32-70.72L38.32-70.72L38.32-70.72Q49.82-70.72 55.38-67.29L55.38-67.29L55.38-67.29Q60.94-63.86 60.94-58.03L60.94-58.03L60.94-58.03Q60.94-52.94 56.99-49.71L56.99-49.71L56.99-49.71Q53.56-47.01 49.40-47.01L49.40-47.01L49.40-47.01Q45.24-47.01 42.33-48.05ZM96.51-4.37L96.51-4.37L96.51-4.37Q91.52 2.08 79.14 2.08L79.14 2.08L79.14 2.08Q72.70 2.08 68.02-1.82L68.02-1.82L68.02-1.82Q63.34-5.72 63.34-11.34L63.34-11.34L63.34-11.34Q63.34-14.46 63.65-16.02L63.65-16.02L70.62-53.04L91.73-55.12L84.14-14.98L84.14-14.98Q83.72-12.69 83.72-11.34L83.72-11.34L83.72-11.34Q83.72-5.30 87.36-5.30L87.36-5.30L87.36-5.30Q91.42-5.30 94.33-10.82L94.33-10.82L94.33-10.82Q95.26-12.58 95.68-14.87L95.68-14.87L103.06-53.04L123.55-55.12L115.86-14.56L115.86-14.56Q115.54-13.00 115.54-11.34L115.54-11.34L115.54-11.34Q115.54-9.67 116.48-7.85L116.48-7.85L116.48-7.85Q117.42-6.03 120.43-5.62L120.43-5.62L120.43-5.62Q119.81-3.12 117.62-1.46L117.62-1.46L117.62-1.46Q113.05 2.08 108.11 2.08L108.11 2.08L108.11 2.08Q103.17 2.08 100.26 0.31L100.26 0.31L100.26 0.31Q97.34-1.46 96.51-4.37ZM179.82-43.26L179.82-43.26L179.82-43.26Q179.82-38.90 176.18-36.19L176.18-36.19L176.18-36.19Q172.54-33.49 166.61-33.49L166.61-33.49L166.61-33.49Q164.11-33.49 162.66-34.22L162.66-34.22L162.66-34.22Q163.80-36.92 164.16-40.30L164.16-40.30L164.16-40.30Q164.53-43.68 164.53-44.62L164.53-44.62L164.53-44.62Q164.53-48.98 161.51-48.98L161.51-48.98L161.51-48.98Q159.43-48.98 157.09-46.38L157.09-46.38L157.09-46.38Q154.75-43.78 152.78-39.73L152.78-39.73L152.78-39.73Q148.41-30.37 148.41-20.90L148.41-20.90L148.41-20.90Q148.41-15.70 150.38-13.36L150.38-13.36L150.38-13.36Q152.36-11.02 156.73-11.02L156.73-11.02L156.73-11.02Q162.76-11.02 167.54-16.02L167.54-16.02L167.54-16.02Q168.90-17.58 169.62-19.34L169.62-19.34L169.62-19.34Q173.58-17.26 173.58-11.54L173.58-11.54L173.58-11.54Q173.58-5.72 167.13-1.87L167.13-1.87L167.13-1.87Q160.47 2.08 149.86 2.08L149.86 2.08L149.86 2.08Q128.75 2.08 128.75-20.28L128.75-20.28L128.75-20.28Q128.75-36.61 138.01-45.97L138.01-45.97L138.01-45.97Q146.95-55.12 163.38-55.12L163.38-55.12L163.38-55.12Q179.82-55.12 179.82-43.26ZM233.69-43.26L233.69-43.26L233.69-43.26Q233.69-38.90 230.05-36.19L230.05-36.19L230.05-36.19Q226.41-33.49 220.48-33.49L220.48-33.49L220.48-33.49Q217.98-33.49 216.53-34.22L216.53-34.22L216.53-34.22Q217.67-36.92 218.04-40.30L218.04-40.30L218.04-40.30Q218.40-43.68 218.40-44.62L218.40-44.62L218.40-44.62Q218.40-48.98 215.38-48.98L215.38-48.98L215.38-48.98Q213.30-48.98 210.96-46.38L210.96-46.38L210.96-46.38Q208.62-43.78 206.65-39.73L206.65-39.73L206.65-39.73Q202.28-30.37 202.28-20.90L202.28-20.90L202.28-20.90Q202.28-15.70 204.26-13.36L204.26-13.36L204.26-13.36Q206.23-11.02 210.60-11.02L210.60-11.02L210.60-11.02Q216.63-11.02 221.42-16.02L221.42-16.02L221.42-16.02Q222.77-17.58 223.50-19.34L223.50-19.34L223.50-19.34Q227.45-17.26 227.45-11.54L227.45-11.54L227.45-11.54Q227.45-5.72 221.00-1.87L221.00-1.87L221.00-1.87Q214.34 2.08 203.74 2.08L203.74 2.08L203.74 2.08Q182.62 2.08 182.62-20.28L182.62-20.28L182.62-20.28Q182.62-36.61 191.88-45.97L191.88-45.97L191.88-45.97Q200.82-55.12 217.26-55.12L217.26-55.12L217.26-55.12Q233.69-55.12 233.69-43.26ZM278.62-17.58L278.62-17.58L278.62-17.58Q281.22-15.81 281.22-11.91L281.22-11.91L281.22-11.91Q281.22-8.01 279.24-5.51L279.24-5.51L279.24-5.51Q277.26-3.02 274.04-1.35L274.04-1.35L274.04-1.35Q267.38 2.08 260.21 2.08L260.21 2.08L260.21 2.08Q253.03 2.08 248.82 0.52L248.82 0.52L248.82 0.52Q244.61-1.04 241.80-3.95L241.80-3.95L241.80-3.95Q236.29-9.46 236.29-19.55L236.29-19.55L236.29-19.55Q236.29-35.26 244.82-44.82L244.82-44.82L244.82-44.82Q253.97-55.12 269.88-55.12L269.88-55.12L269.88-55.12Q279.76-55.12 284.65-50.96L284.65-50.96L284.65-50.96Q288.29-47.84 288.29-42.74L288.29-42.74L288.29-42.74Q288.29-24.44 256.67-24.44L256.67-24.44L256.67-24.44Q256.26-21.74 256.26-19.45L256.26-19.45L256.26-19.45Q256.26-14.66 258.39-12.84L258.39-12.84L258.39-12.84Q260.52-11.02 264.47-11.02L264.47-11.02L264.47-11.02Q268.42-11.02 272.64-12.84L272.64-12.84L272.64-12.84Q276.85-14.66 278.62-17.58ZM257.40-28.91L257.40-28.91L257.40-28.91Q264.78-28.91 269.05-33.49L269.05-33.49L269.05-33.49Q273.31-37.86 273.31-44.82L273.31-44.82L273.31-44.82Q273.31-47.22 272.43-48.52L272.43-48.52L272.43-48.52Q271.54-49.82 269.78-49.82L269.78-49.82L269.78-49.82Q268.01-49.82 266.50-49.14L266.50-49.14L266.50-49.14Q264.99-48.46 263.43-46.18L263.43-46.18L263.43-46.18Q259.58-40.98 257.40-28.91ZM322.92-36.50L322.92-36.50L322.92-36.50Q324.38-40.35 324.38-43.68L324.38-43.68L324.38-43.68Q324.38-49.82 319.38-49.82L319.38-49.82L319.38-49.82Q316.78-49.82 314.65-47.48L314.65-47.48L314.65-47.48Q312.52-45.14 312.52-42.22L312.52-42.22L312.52-42.22Q312.52-40.14 314.18-38.48L314.18-38.48L314.18-38.48Q316.58-36.19 322.71-32.45L322.71-32.45L322.71-32.45Q328.85-28.70 331.19-25.64L331.19-25.64L331.19-25.64Q333.53-22.57 333.53-18.36L333.53-18.36L333.53-18.36Q333.53-14.14 331.50-10.30L331.50-10.30L331.50-10.30Q329.47-6.45 325.83-3.74L325.83-3.74L325.83-3.74Q318.03 2.08 305.55 2.08L305.55 2.08L305.55 2.08Q298.79 2.08 293.59-1.46L293.59-1.46L293.59-1.46Q288.39-4.89 288.39-8.94L288.39-8.94L288.39-8.94Q288.39-13.00 291.36-15.39L291.36-15.39L291.36-15.39Q294.32-17.78 298.69-17.78L298.69-17.78L298.69-17.78Q303.06-17.78 305.76-16.12L305.76-16.12L305.76-16.12Q304.41-12.69 304.41-10.40L304.41-10.40L304.41-10.40Q304.41-3.54 310.23-3.54L310.23-3.54L310.23-3.54Q312.73-3.54 314.39-5.10L314.39-5.10L314.39-5.10Q316.06-6.66 316.06-9.36L316.06-9.36L316.06-9.36Q316.06-14.66 307.11-20.28L307.11-20.28L307.11-20.28Q299.83-25.06 298.17-26.94L298.17-26.94L298.17-26.94Q295.36-30.26 295.36-34.42L295.36-34.42L295.36-34.42Q295.36-38.58 297.34-42.54L297.34-42.54L297.34-42.54Q299.31-46.49 302.95-49.30L302.95-49.30L302.95-49.30Q310.54-55.12 323.75-55.12L323.75-55.12L323.75-55.12Q330.51-55.12 334.52-52.42L334.52-52.42L334.52-52.42Q338.52-49.71 338.52-45.14L338.52-45.14L338.52-45.14Q338.52-40.56 335.76-37.96L335.76-37.96L335.76-37.96Q333.01-35.36 328.02-35.36L328.02-35.36L328.02-35.36Q324.58-35.36 322.92-36.50ZM373.46-36.50L373.46-36.50L373.46-36.50Q374.92-40.35 374.92-43.68L374.92-43.68L374.92-43.68Q374.92-49.82 369.93-49.82L369.93-49.82L369.93-49.82Q367.33-49.82 365.20-47.48L365.20-47.48L365.20-47.48Q363.06-45.14 363.06-42.22L363.06-42.22L363.06-42.22Q363.06-40.14 364.73-38.48L364.73-38.48L364.73-38.48Q367.12-36.19 373.26-32.45L373.26-32.45L373.26-32.45Q379.39-28.70 381.73-25.64L381.73-25.64L381.73-25.64Q384.07-22.57 384.07-18.36L384.07-18.36L384.07-18.36Q384.07-14.14 382.04-10.30L382.04-10.30L382.04-10.30Q380.02-6.45 376.38-3.74L376.38-3.74L376.38-3.74Q368.58 2.08 356.10 2.08L356.10 2.08L356.10 2.08Q349.34 2.08 344.14-1.46L344.14-1.46L344.14-1.46Q338.94-4.89 338.94-8.94L338.94-8.94L338.94-8.94Q338.94-13.00 341.90-15.39L341.90-15.39L341.90-15.39Q344.86-17.78 349.23-17.78L349.23-17.78L349.23-17.78Q353.60-17.78 356.30-16.12L356.30-16.12L356.30-16.12Q354.95-12.69 354.95-10.40L354.95-10.40L354.95-10.40Q354.95-3.54 360.78-3.54L360.78-3.54L360.78-3.54Q363.27-3.54 364.94-5.10L364.94-5.10L364.94-5.10Q366.60-6.66 366.60-9.36L366.60-9.36L366.60-9.36Q366.60-14.66 357.66-20.28L357.66-20.28L357.66-20.28Q350.38-25.06 348.71-26.94L348.71-26.94L348.71-26.94Q345.90-30.26 345.90-34.42L345.90-34.42L345.90-34.42Q345.90-38.58 347.88-42.54L347.88-42.54L347.88-42.54Q349.86-46.49 353.50-49.30L353.50-49.30L353.50-49.30Q361.09-55.12 374.30-55.12L374.30-55.12L374.30-55.12Q381.06-55.12 385.06-52.42L385.06-52.42L385.06-52.42Q389.06-49.71 389.06-45.14L389.06-45.14L389.06-45.14Q389.06-40.56 386.31-37.96L386.31-37.96L386.31-37.96Q383.55-35.36 378.56-35.36L378.56-35.36L378.56-35.36Q375.13-35.36 373.46-36.50ZM390.10-6.14L390.10-6.14L390.10-6.14Q390.10-10.09 393.07-12.22L393.07-12.22L393.07-12.22Q396.03-14.35 400.40-14.35L400.40-14.35L400.40-14.35Q404.77-14.35 407.52-12.22L407.52-12.22L407.52-12.22Q410.28-10.09 410.28-6.14L410.28-6.14L410.28-6.14Q410.28-2.18 407.21 0L407.21 0L407.21 0Q404.14 2.18 399.78 2.18L399.78 2.18L399.78 2.18Q395.41 2.18 392.76 0L392.76 0L392.76 0Q390.10-2.18 390.10-6.14ZM395.72-25.69L395.72-25.69L395.72-25.69Q395.72-26.42 395.93-27.46L395.93-27.46L404.04-69.26L404.04-69.26Q407.89-70.72 412.46-70.72L412.46-70.72L412.46-70.72Q417.04-70.72 419.43-67.81L419.43-67.81L419.43-67.81Q421.82-64.90 421.82-60.58L421.82-60.58L421.82-60.58Q421.82-56.26 420.16-51.43L420.16-51.43L420.16-51.43Q418.50-46.59 416.47-41.70L416.47-41.70L416.47-41.70Q414.44-36.82 412.72-31.77L412.72-31.77L412.72-31.77Q411.01-26.73 410.90-21.42L410.90-21.42L410.90-21.42Q408.51-18.72 404.35-18.72L404.35-18.72L404.35-18.72Q400.19-18.72 397.96-20.64L397.96-20.64L397.96-20.64Q395.72-22.57 395.72-25.69Z" fill="#ffffff"></path></g></g><style>text {
  font-size: 64px;
  font-family: Arial Black;
  dominant-baseline: central;
  text-anchor: middle;
}</style></svg>